<svg width="18" height="18" viewBox="0 0 18 18" fill="none" xmlns="http://www.w3.org/2000/svg">
<path d="M8.61686 13.1079C8.50029 13.0624 8.38586 12.9836 8.27357 12.8713L4.905 9.504C4.77986 9.37886 4.71471 9.23143 4.70957 9.06172C4.70443 8.892 4.76957 8.73643 4.905 8.59501C5.04729 8.45272 5.20029 8.38029 5.364 8.37772C5.52857 8.37515 5.68157 8.445 5.823 8.58729L8.35714 11.1214V0.642866C8.35714 0.460294 8.41843 0.307295 8.541 0.183866C8.66357 0.0604376 8.81657 -0.000848275 9 8.86697e-06C9.18343 0.000866009 9.33643 0.0621519 9.459 0.183866C9.58157 0.30558 9.64286 0.45858 9.64286 0.642866V11.1214L12.177 8.58729C12.3021 8.46215 12.4509 8.39658 12.6231 8.39058C12.7954 8.38458 12.9523 8.45272 13.0937 8.59501C13.2309 8.73643 13.3007 8.88815 13.3033 9.05015C13.3059 9.21215 13.2364 9.36343 13.095 9.504L9.72643 12.8726C9.615 12.984 9.50057 13.0624 9.38314 13.1079C9.26657 13.1533 9.13886 13.176 9 13.176C8.86114 13.176 8.73343 13.1533 8.61686 13.1079ZM2.07771 18C1.48543 18 0.991285 17.802 0.595285 17.406C0.199285 17.01 0.000857143 16.5154 0 15.9223V13.4499C0 13.2673 0.0612859 13.1147 0.183857 12.9921C0.306429 12.8696 0.459429 12.8079 0.642857 12.807C0.826286 12.8061 0.979286 12.8679 1.10186 12.9921C1.22443 13.1164 1.28571 13.269 1.28571 13.4499V15.9223C1.28571 16.1203 1.368 16.302 1.53257 16.4674C1.69714 16.6329 1.87843 16.7151 2.07643 16.7143H15.9236C16.1207 16.7143 16.302 16.632 16.4674 16.4674C16.6329 16.3029 16.7151 16.1211 16.7143 15.9223V13.4499C16.7143 13.2673 16.7756 13.1147 16.8981 12.9921C17.0207 12.8696 17.1737 12.8079 17.3571 12.807C17.5406 12.8061 17.6936 12.8679 17.8161 12.9921C17.9387 13.1164 18 13.269 18 13.4499V15.9223C18 16.5146 17.802 17.0087 17.406 17.4047C17.01 17.8007 16.5154 17.9991 15.9223 18H2.07771Z" fill="white"/>
</svg>
