<svg width="144" height="35" viewBox="0 0 144 35" fill="none" xmlns="http://www.w3.org/2000/svg">
<path fill-rule="evenodd" clip-rule="evenodd" d="M144 7.62939e-05V22.0036H141.703V14.2218H138.239C138.163 14.2218 138.079 14.2216 137.992 14.2207L133.323 22.0036H130.637L135.591 13.7568C132.769 12.7424 130.721 10.1541 130.721 7.11105C130.721 3.16778 134.134 7.62939e-05 138.239 7.62939e-05H144ZM138.239 11.9608C135.34 11.9608 133.019 9.73348 133.019 7.11105C133.019 4.48859 135.34 2.2611 138.239 2.2611H141.703V11.9608H138.239Z" fill="white"/>
<path d="M125.556 22.0036H123.258V7.62939e-05H125.556V22.0036Z" fill="white"/>
<path d="M117.93 7.11105C117.93 11.0543 114.518 14.2218 110.412 14.2218H106.949V22.0036H104.652V7.62939e-05H110.412C114.518 7.8795e-05 117.93 3.16778 117.93 7.11105ZM115.633 7.11105C115.633 4.48583 113.338 2.2611 110.412 2.2611H106.949V11.9608H110.412C113.338 11.9608 115.633 9.73624 115.633 7.11105Z" fill="white"/>
<path d="M99.7664 7.62939e-05V2.2611H94.6417V22.0036H92.3444V2.2611H87.2197V7.62939e-05H99.7664Z" fill="white"/>
<path d="M83.7953 7.62939e-05V2.2611H75.6836V11.3844H82.6239V13.6454H75.6836V19.7425H83.7953V22.0036H73.3865V7.62939e-05H83.7953Z" fill="white"/>
<path d="M66.179 22.0036H63.8817V6.04427L58.8994 16.4699H57.4284L52.4155 6.02731V22.0036H50.1182V7.62939e-05H52.0757L58.1614 12.7144L64.2203 7.62939e-05H66.179V22.0036Z" fill="white"/>
<path d="M42.8925 22.0036H40.5952V9.64998L32.3503 18.7291V22.0036H30.053V7.62939e-05H32.3503V15.3221L40.5952 6.24294V7.62939e-05H42.8925V22.0036Z" fill="white"/>
<path d="M10.0465 21.5456C4.49797 21.5456 -3.42147e-06 17.1187 -2.93641e-06 11.6579L-2.82502e-06 10.404C5.28944e-06 4.94316 4.49798 0.516276 10.0465 0.51627L24.0939 0.516272L24.0939 4.70852L10.0465 4.70852C6.85045 4.70852 4.25957 7.25846 4.25956 10.404L4.25956 11.6579C4.25956 14.8034 6.85045 17.3534 10.0465 17.3534L24.0939 17.3534L24.0939 21.5456L10.0465 21.5456ZM23.0125 19.9999L23.0125 18.899L10.0465 18.899C5.98314 18.899 2.68918 15.6571 2.68916 11.6579L2.68916 10.404C2.68917 6.40484 5.98313 3.16281 10.0465 3.1628L23.0125 3.1628L23.0125 2.06185L10.0465 2.06185C5.36531 2.06186 1.57041 5.79678 1.5704 10.404L1.5704 11.6579C1.57042 16.2651 5.36531 19.9999 10.0465 19.9999L23.0125 19.9999Z" fill="white"/>
<path d="M5.50269 11.6216V10.4415C5.50269 7.73762 7.72978 5.54574 10.477 5.54574H24.0939V6.08971H10.477C8.03503 6.08971 6.0554 8.03805 6.0554 10.4415V11.6216C6.0554 14.025 8.03503 15.9733 10.477 15.9733H24.0939V16.5173H10.477C7.72978 16.5173 5.50269 14.3254 5.50269 11.6216Z" fill="white"/>
<path d="M123.367 34.0889H122.754L124.9 29.1491H125.42L127.566 34.0889H126.918L126.276 32.6014H124.002L123.367 34.0889ZM126.041 32.04L125.142 29.942L124.244 32.04H126.041Z" fill="white"/>
<path d="M120.739 29.176H121.474L119.249 31.4845L121.588 34.0878H120.811L118.55 31.5266L120.739 29.176ZM118.429 34.0878H117.823V29.176H118.429V34.0878Z" fill="white"/>
<path d="M115.186 34.0878H114.58V29.176H115.186V34.0878Z" fill="white"/>
<path d="M111.944 34.0878H111.338V31.8635H108.593V34.0878H107.987V29.176H108.593V31.3021H111.338V29.176H111.944V34.0878Z" fill="white"/>
<path d="M105.35 34.0878H104.744V29.176H105.35V34.0878Z" fill="white"/>
<path d="M102.109 34.0878H101.503V29.7374H99.692L99.6064 30.6636C99.5494 31.2717 99.4757 31.7933 99.3854 32.2283C99.2951 32.6587 99.1976 32.9978 99.0931 33.2458C98.9885 33.4937 98.8649 33.6855 98.7223 33.8212C98.5845 33.9568 98.449 34.041 98.316 34.0738C98.1829 34.1065 98.0308 34.1112 97.8597 34.0878L97.8668 33.4914C97.9666 33.5054 98.0522 33.4984 98.1235 33.4703C98.1948 33.4376 98.2756 33.3651 98.3659 33.2528C98.4657 33.1358 98.556 32.9604 98.6368 32.7265C98.8269 32.2026 98.9647 31.3465 99.0503 30.1584L99.1216 29.176H102.109V34.0878Z" fill="white"/>
<path d="M95.7526 29.176H96.4869L94.2625 31.4845L96.601 34.0878H95.8239L93.5638 31.5266L95.7526 29.176ZM93.4426 34.0878H92.8366V29.176H93.4426V34.0878Z" fill="white"/>
<path d="M84.1837 34.0889H83.5706L85.7166 29.1491H86.237L88.383 34.0889H87.7342L87.0926 32.6014H84.8183L84.1837 34.0889ZM86.8573 32.04L85.959 29.942L85.0607 32.04H86.8573Z" fill="white"/>
<path d="M81.7193 34.0878H81.1133V31.8635H78.3684V34.0878H77.7624V29.176H78.3684V31.3021H81.1133V29.176H81.7193V34.0878Z" fill="white"/>
<path d="M74.6584 29.176H75.2644V34.0878H74.6584V31.9406C74.3019 32.1932 73.8623 32.3195 73.3394 32.3195C72.8974 32.3195 72.5385 32.1932 72.2629 31.9406C71.9824 31.688 71.8422 31.2928 71.8422 30.7548V29.176H72.4482V30.5934C72.4482 31.3699 72.7976 31.7582 73.4963 31.7582C73.8955 31.7582 74.2829 31.6342 74.6584 31.3863V29.176Z" fill="white"/>
<path d="M69.0267 30.1584L65.9967 34.0878H65.462V29.176H66.068V33.1054L69.098 29.176H69.6327V34.0878H69.0267V30.1584Z" fill="white"/>
<path d="M61.293 29.7374H59.5462V29.176H63.6457V29.7374H61.899V34.0878H61.293V29.7374Z" fill="white"/>
<path d="M57.7308 34.0878H57.1247V31.8635H54.3799V34.0878H53.7739V29.176H54.3799V31.3021H57.1247V29.176H57.7308V34.0878Z" fill="white"/>
<path d="M46.5771 31.6309C46.5771 30.9199 46.8171 30.3211 47.2972 29.8346C47.7772 29.3481 48.3856 29.1049 49.1223 29.1049C49.8543 29.1049 50.4603 29.3411 50.9404 29.8136C51.4252 30.2861 51.6676 30.8918 51.6676 31.6309C51.6676 32.3513 51.4252 32.9548 50.9404 33.4413C50.4556 33.9184 49.8496 34.157 49.1223 34.157C48.3951 34.157 47.7868 33.9208 47.2972 33.4483C46.8171 32.9758 46.5771 32.3701 46.5771 31.6309ZM47.2188 31.6309C47.2188 32.1829 47.4018 32.6507 47.7677 33.0343C48.1337 33.4085 48.5853 33.5957 49.1223 33.5957C49.6832 33.5957 50.1395 33.4085 50.4912 33.0343C50.8477 32.6601 51.0259 32.1923 51.0259 31.6309C51.0259 31.0696 50.8429 30.6018 50.477 30.2276C50.111 29.8533 49.6594 29.6662 49.1223 29.6662C48.5758 29.6662 48.1218 29.851 47.7606 30.2206C47.3994 30.5901 47.2188 31.0602 47.2188 31.6309Z" fill="white"/>
<path d="M40.6221 35H40.0517V33.5264H40.5864C40.7433 33.33 40.9049 32.9487 41.0712 32.3827C41.2424 31.8167 41.3541 31.0752 41.4063 30.1584L41.4562 29.176H44.3936V33.5264H45.0709V35H44.5005V34.0878H40.6221V35ZM42.0409 29.7374L41.9767 30.6145C41.9292 31.3395 41.827 31.9757 41.6701 32.523C41.5228 33.0376 41.3849 33.3721 41.2566 33.5264H43.7876V29.7374H42.0409Z" fill="white"/>
<path d="M33.7332 31.6309C33.7332 30.9199 33.9733 30.3211 34.4533 29.8346C34.9334 29.3481 35.5418 29.1049 36.2785 29.1049C37.0104 29.1049 37.6165 29.3411 38.0965 29.8136C38.5813 30.2861 38.8237 30.8918 38.8237 31.6309C38.8237 32.3513 38.5813 32.9548 38.0965 33.4413C37.6117 33.9184 37.0057 34.157 36.2785 34.157C35.5513 34.157 34.9429 33.9208 34.4533 33.4483C33.9733 32.9758 33.7332 32.3701 33.7332 31.6309ZM34.3749 31.6309C34.3749 32.1829 34.5579 32.6507 34.9239 33.0343C35.2899 33.4085 35.7414 33.5957 36.2785 33.5957C36.8393 33.5957 37.2956 33.4085 37.6473 33.0343C38.0038 32.6601 38.1821 32.1923 38.1821 31.6309C38.1821 31.0696 37.9991 30.6018 37.6331 30.2276C37.2671 29.8533 36.8156 29.6662 36.2785 29.6662C35.7319 29.6662 35.278 29.851 34.9167 30.2206C34.5555 30.5901 34.3749 31.0602 34.3749 31.6309Z" fill="white"/>
<path d="M30.1934 29.7374H28.4466V29.176H32.5461V29.7374H30.7994V34.0878H30.1934V29.7374Z" fill="white"/>
<path d="M24.6032 32.2008V34.0884H23.9972V29.1766C24.1968 29.1766 24.4083 29.1742 24.6317 29.1696C24.8551 29.1649 25.0785 29.1626 25.3019 29.1626C25.9578 29.1626 26.4283 29.3076 26.7135 29.5976C27.0034 29.8829 27.1484 30.2455 27.1484 30.6852C27.1484 31.1109 26.9916 31.4758 26.6779 31.7798C26.3737 32.0792 25.9316 32.2289 25.3518 32.2289C25.0476 32.2289 24.7981 32.2196 24.6032 32.2008ZM25.3589 29.7239C25.2734 29.7239 25.0214 29.7286 24.6032 29.7379V31.6325C24.9026 31.6559 25.145 31.6676 25.3304 31.6676C25.6964 31.6676 25.9839 31.581 26.1931 31.4079C26.4022 31.2302 26.5068 30.9869 26.5068 30.6782C26.5068 30.3741 26.4093 30.1402 26.2144 29.9765C26.0243 29.8081 25.7391 29.7239 25.3589 29.7239Z" fill="white"/>
<path d="M16.8002 31.6309C16.8002 30.9199 17.0402 30.3211 17.5202 29.8346C18.0003 29.3481 18.6087 29.1049 19.3454 29.1049C20.0774 29.1049 20.6834 29.3411 21.1634 29.8136C21.6482 30.2861 21.8906 30.8918 21.8906 31.6309C21.8906 32.3513 21.6482 32.9548 21.1634 33.4413C20.6786 33.9184 20.0726 34.157 19.3454 34.157C18.6182 34.157 18.0098 33.9208 17.5202 33.4483C17.0402 32.9758 16.8002 32.3701 16.8002 31.6309ZM17.4418 31.6309C17.4418 32.1829 17.6248 32.6507 17.9908 33.0343C18.3568 33.4085 18.8083 33.5957 19.3454 33.5957C19.9062 33.5957 20.3625 33.4085 20.7143 33.0343C21.0707 32.6601 21.249 32.1923 21.249 31.6309C21.249 31.0696 21.066 30.6018 20.7 30.2276C20.334 29.8533 19.8825 29.6662 19.3454 29.6662C18.7988 29.6662 18.3449 29.851 17.9837 30.2206C17.6224 30.5901 17.4418 31.0602 17.4418 31.6309Z" fill="white"/>
</svg>
